{
  "accessors": [
    {
      "bufferView": 2,
      "componentType": 5126,
      "count": 50,
      "max": [
        1.0599312782287598,
        4.81946325302124,
        0.9016315340995789
      ],
      "min": [
        -1.0599313974380493,
        -0.11104639619588852,
        -1.1144777536392212
      ],
      "type": "VEC3"
    },
    {
      "bufferView": 2,
      "byteOffset": 600,
      "componentType": 5126,
      "count": 50,
      "max": [
        0.9504797458648682,
        1.0,
        0.9993452429771423
      ],
      "min": [
        -0.9504797458648682,
        -1.0,
        -0.8101675510406494
      ],
      "type": "VEC3"
    },
    {
      "bufferView": 1,
      "componentType": 5125,
      "count": 78,
      "type": "SCALAR"
    },
    {
      "bufferView": 2,
      "byteOffset": 1200,
      "componentType": 5126,
      "count": 240,
      "max": [
        5.2830729484558105,
        9.015629768371582,
        5.568674087524414
      ],
      "min": [
        -5.573413372039795,
        3.4657421112060547,
        -5.263614177703857
      ],
      "type": "VEC3"
    },
    {
      "bufferView": 2,
      "byteOffset": 4080,
      "componentType": 5126,
      "count": 240,
      "max": [
        0.9604265689849854,
        0.9940997958183289,
        0.9863473773002625
      ],
      "min": [
        -0.9797018766403198,
        -0.9987121224403381,
        -0.9709754586219788
      ],
      "type": "VEC3"
    },
    {
      "bufferView": 1,
      "byteOffset": 312,
      "componentType": 5125,
      "count": 240,
      "type": "SCALAR"
    },
    {
      "bufferView": 4,
      "componentType": 5126,
      "count": 6,
      "max": [
        18.01049041748047,
        0.0,
        4.294035349516889e-08,
        0.0,
        5.1188886097020166e-15,
        18.01049041748047,
        1.4548757670861762e-28,
        0.0,
        0.0,
        0.0,
        44.93463897705078,
        0.0,
        0.0,
        0.0,
        0.0,
        1.0
      ],
      "min": [
        0.18010491132736206,
        -5.11888903321849e-15,
        0.0,
        0.0,
        0.0,
        0.18010491132736206,
        0.0,
        0.0,
        -1.0713251441529792e-07,
        0.0,
        0.4493464231491089,
        0.0,
        -6.912675862497455e-14,
        -2.4321820735931396,
        -1.9647004549117064e-27,
        1.0
      ],
      "type": "MAT4"
    },
    {
      "bufferView": 0,
      "componentType": 5123,
      "count": 50,
      "type": "VEC4"
    },
    {
      "bufferView": 3,
      "componentType": 5126,
      "count": 50,
      "max": [
        1.0,
        0.0,
        0.0,
        0.0
      ],
      "min": [
        1.0,
        0.0,
        0.0,
        0.0
      ],
      "type": "VEC4"
    },
    {
      "bufferView": 0,
      "byteOffset": 400,
      "componentType": 5123,
      "count": 240,
      "type": "VEC4"
    },
    {
      "bufferView": 3,
      "byteOffset": 800,
      "componentType": 5126,
      "count": 240,
      "max": [
        1.0,
        0.38025620579719543,
        0.0,
        0.0
      ],
      "min": [
        0.619743824005127,
        0.0,
        0.0,
        0.0
      ],
      "type": "VEC4"
    },
    {
      "bufferView": 5,
      "componentType": 5126,
      "count": 186,
      "max": [
        6.208333492279053
      ],
      "min": [
        0.0
      ],
      "type": "SCALAR"
    },
    {
      "bufferView": 6,
      "componentType": 5126,
      "count": 186,
      "max": [
        5.551115123125783e-17,
        0.7672646045684814,
        2.7755575615628914e-17
      ],
      "min": [
        -5.551115123125783e-17,
        0.7672646045684814,
        -2.7755575615628914e-17
      ],
      "type": "VEC3"
    },
    {
      "bufferView": 5,
      "byteOffset": 744,
      "componentType": 5126,
      "count": 187,
      "max": [
        6.208333492279053
      ],
      "min": [
        0.0
      ],
      "type": "SCALAR"
    },
    {
      "bufferView": 7,
      "componentType": 5126,
      "count": 187,
      "max": [
        1.0408341683041455e-17,
        8.673617379884035e-19,
        1.2008386093224216e-17,
        1.0
      ],
      "min": [
        -1.0408341683041455e-17,
        -8.673617379884035e-19,
        -1.3586408473958977e-17,
        1.0
      ],
      "type": "VEC4"
    },
    {
      "bufferView": 5,
      "byteOffset": 1492,
      "componentType": 5126,
      "count": 295,
      "max": [
        6.208333492279053
      ],
      "min": [
        0.0
      ],
      "type": "SCALAR"
    },
    {
      "bufferView": 6,
      "byteOffset": 2232,
      "componentType": 5126,
      "count": 295,
      "max": [
        1.3877787807814457e-17,
        0.7288795709609985,
        1.3877787807814457e-17
      ],
      "min": [
        -1.3877787807814457e-17,
        0.7288795709609985,
        -2.7755575615628914e-17
      ],
      "type": "VEC3"
    },
    {
      "bufferView": 5,
      "byteOffset": 2672,
      "componentType": 5126,
      "count": 298,
      "max": [
        6.208333492279053
      ],
      "min": [
        0.0
      ],
      "type": "SCALAR"
    },
    {
      "bufferView": 7,
      "byteOffset": 2992,
      "componentType": 5126,
      "count": 298,
      "max": [
        0.019241927191615105,
        7.182565582297684e-07,
        0.013693979009985924,
        1.0
      ],
      "min": [
        -3.552713678800501e-15,
        -0.00030638944008387625,
        -0.02748936042189598,
        0.9995686411857605
      ],
      "type": "VEC4"
    },
    {
      "bufferView": 5,
      "byteOffset": 3864,
      "componentType": 5126,
      "count": 297,
      "max": [
        6.208333492279053
      ],
      "min": [
        0.0
      ],
      "type": "SCALAR"
    },
    {
      "bufferView": 6,
      "byteOffset": 5772,
      "componentType": 5126,
      "count": 297,
      "max": [
        6.938893903907228e-18,
        0.8796567320823669,
        6.938893903907228e-18
      ],
      "min": [
        -8.673617379884035e-18,
        0.8796567320823669,
        -5.204170427930421e-18
      ],
      "type": "VEC3"
    },
    {
      "bufferView": 5,
      "byteOffset": 5052,
      "componentType": 5126,
      "count": 298,
      "max": [
        6.208333492279053
      ],
      "min": [
        0.0
      ],
      "type": "SCALAR"
    },
    {
      "bufferView": 7,
      "byteOffset": 7760,
      "componentType": 5126,
      "count": 298,
      "max": [
        -3.552713678800501e-15,
        0.002636810066178441,
        0.017342543229460716,
        1.0
      ],
      "min": [
        -0.020788803696632385,
        -0.00025353318778797984,
        -0.02242349460721016,
        0.9997075200080872
      ],
      "type": "VEC4"
    },
    {
      "bufferView": 5,
      "byteOffset": 6244,
      "componentType": 5126,
      "count": 298,
      "max": [
        6.208333492279053
      ],
      "min": [
        0.0
      ],
      "type": "SCALAR"
    },
    {
      "bufferView": 7,
      "byteOffset": 12528,
      "componentType": 5126,
      "count": 298,
      "max": [
        0.008440774865448475,
        1.112359882426972e-06,
        2.0629518093784327e-09,
        1.0
      ],
      "min": [
        -0.006466772872954607,
        -1.787959990906529e-05,
        -0.010542548261582851,
        0.9999428987503052
      ],
      "type": "VEC4"
    }
  ],
  "animations": [
    {
      "channels": [
        {
          "sampler": 0,
          "target": {
            "node": 11,
            "path": "translation"
          }
        },
        {
          "sampler": 1,
          "target": {
            "node": 11,
            "path": "rotation"
          }
        },
        {
          "sampler": 2,
          "target": {
            "node": 10,
            "path": "translation"
          }
        },
        {
          "sampler": 3,
          "target": {
            "node": 10,
            "path": "rotation"
          }
        },
        {
          "sampler": 4,
          "target": {
            "node": 9,
            "path": "translation"
          }
        },
        {
          "sampler": 5,
          "target": {
            "node": 9,
            "path": "rotation"
          }
        },
        {
          "sampler": 6,
          "target": {
            "node": 8,
            "path": "rotation"
          }
        }
      ],
      "name": "Armature|Wind",
      "samplers": [
        {
          "input": 11,
          "interpolation": "LINEAR",
          "output": 12
        },
        {
          "input": 13,
          "interpolation": "LINEAR",
          "output": 14
        },
        {
          "input": 15,
          "interpolation": "LINEAR",
          "output": 16
        },
        {
          "input": 17,
          "interpolation": "LINEAR",
          "output": 18
        },
        {
          "input": 19,
          "interpolation": "LINEAR",
          "output": 20
        },
        {
          "input": 21,
          "interpolation": "LINEAR",
          "output": 22
        },
        {
          "input": 23,
          "interpolation": "LINEAR",
          "output": 24
        }
      ]
    }
  ],
  "asset": {
    "extras": {
      "author": "Anskar (https://sketchfab.com/Anskar)",
      "license": "CC-BY-4.0 (http://creativecommons.org/licenses/by/4.0/)",
      "source": "https://sketchfab.com/3d-models/low-poly-tree-wind-82ad872d9b994af9a6b74a453c03e01f",
      "title": "Low Poly Tree Wind"
    },
    "generator": "Sketchfab-12.68.0",
    "version": "2.0"
  },
  "bufferViews": [
    {
      "buffer": 0,
      "byteLength": 2320,
      "byteStride": 8,
      "name": "shortBufferViews",
      "target": 34962
    },
    {
      "buffer": 0,
      "byteLength": 1272,
      "byteOffset": 2320,
      "name": "floatBufferViews",
      "target": 34963
    },
    {
      "buffer": 0,
      "byteLength": 6960,
      "byteOffset": 3592,
      "byteStride": 12,
      "name": "floatBufferViews",
      "target": 34962
    },
    {
      "buffer": 0,
      "byteLength": 4640,
      "byteOffset": 10552,
      "byteStride": 16,
      "name": "floatBufferViews",
      "target": 34962
    },
    {
      "buffer": 0,
      "byteLength": 384,
      "byteOffset": 15192,
      "name": "floatBufferViews"
    },
    {
      "buffer": 0,
      "byteLength": 7436,
      "byteOffset": 15576,
      "name": "floatBufferViews"
    },
    {
      "buffer": 0,
      "byteLength": 9336,
      "byteOffset": 23012,
      "byteStride": 12,
      "name": "floatBufferViews"
    },
    {
      "buffer": 0,
      "byteLength": 17296,
      "byteOffset": 32348,
      "byteStride": 16,
      "name": "floatBufferViews"
    }
  ],
  "buffers": [
    {
      "byteLength": 49644,
      "uri": "scene.bin"
    }
  ],
  "materials": [
    {
      "doubleSided": true,
      "name": "Brown",
      "pbrMetallicRoughness": {
        "baseColorFactor": [
          0.456411,
          0.208637,
          0.0908417,
          1.0
        ],
        "metallicFactor": 0.0,
        "roughnessFactor": 0.8239417257461427
      }
    },
    {
      "doubleSided": true,
      "name": "Green",
      "pbrMetallicRoughness": {
        "baseColorFactor": [
          0.283149,
          0.462077,
          0.0116122,
          1.0
        ],
        "metallicFactor": 0.0,
        "roughnessFactor": 0.8239417257461427
      }
    }
  ],
  "meshes": [
    {
      "name": "Circle_Brown_0",
      "primitives": [
        {
          "attributes": {
            "JOINTS_0": 7,
            "NORMAL": 1,
            "POSITION": 0,
            "WEIGHTS_0": 8
          },
          "indices": 2,
          "material": 0,
          "mode": 4
        }
      ]
    },
    {
      "name": "Circle_Green_0",
      "primitives": [
        {
          "attributes": {
            "JOINTS_0": 9,
            "NORMAL": 4,
            "POSITION": 3,
            "WEIGHTS_0": 10
          },
          "indices": 5,
          "material": 1,
          "mode": 4
        }
      ]
    }
  ],
  "nodes": [
    {
      "children": [
        1
      ],
      "matrix": [
        1.0,
        0.0,
        0.0,
        0.0,
        0.0,
        2.220446049250313e-16,
        -1.0,
        0.0,
        0.0,
        1.0,
        2.220446049250313e-16,
        0.0,
        0.0,
        0.0,
        0.0,
        1.0
      ],
      "name": "Sketchfab_model"
    },
    {
      "children": [
        2
      ],
      "matrix": [
        1.0,
        0.0,
        0.0,
        0.0,
        0.0,
        0.0,
        1.0,
        0.0,
        0.0,
        -1.0,
        0.0,
        0.0,
        0.0,
        0.0,
        0.0,
        1.0
      ],
      "name": "Low poly Tree wind.fbx"
    },
    {
      "children": [
        3
      ],
      "name": "Object_2"
    },
    {
      "children": [
        4,
        15
      ],
      "name": "RootNode"
    },
    {
      "children": [
        5
      ],
      "name": "Armature",
      "rotation": [
        -0.7071068286895752,
        0.0,
        0.0,
        0.7071067094802856
      ],
      "scale": [
        100.0,
        100.0,
        100.0
      ]
    },
    {
      "children": [
        6,
        13,
        14,
        12
      ],
      "name": "Object_5"
    },
    {
      "children": [
        7
      ],
      "name": "_rootJoint"
    },
    {
      "children": [
        8
      ],
      "name": "Bone_00",
      "rotation": [
        0.7071067094802856,
        8.429368136830817e-08,
        8.429368136830817e-08,
        0.7071068286895752
      ],
      "scale": [
        1.0,
        0.9999999403953552,
        0.9999999403953552
      ]
    },
    {
      "children": [
        9
      ],
      "name": "Bone.002_01",
      "rotation": [
        0.0009209323325194418,
        -1.401050485583255e-05,
        -0.008245856501162052,
        0.9999656677246094
      ],
      "scale": [
        0.9999999403953552,
        1.0,
        1.0
      ],
      "translation": [
        0.0,
        0.8236459493637085,
        5.293955920339377e-23
      ]
    },
    {
      "children": [
        10
      ],
      "name": "Bone.001_02",
      "rotation": [
        -0.001547491061501205,
        1.01299137895694e-05,
        0.01521478034555912,
        0.9998830556869507
      ],
      "scale": [
        0.9999999403953552,
        1.0,
        1.0
      ],
      "translation": [
        1.7832952892149478e-09,
        0.8796566724777222,
        1.8468426787876524e-10
      ]
    },
    {
      "children": [
        11
      ],
      "name": "Bone.003_03",
      "rotation": [
        0.004228498786687851,
        -2.1032253629676978e-12,
        7.640561794364231e-11,
        0.9999910593032837
      ],
      "translation": [
        -3.748453991647693e-09,
        0.7288795113563538,
        2.3021580301818556e-12
      ]
    },
    {
      "name": "Bone.004_04",
      "rotation": [
        -1.1638690011750441e-10,
        -3.552713678800501e-12,
        -2.298816692558603e-10,
        1.0
      ],
      "translation": [
        5.682491810432566e-09,
        0.767264723777771,
        -2.3206325749924872e-09
      ]
    },
    {
      "matrix": [
        18.01048964262111,
        3.905402399611275e-20,
        3.2760889812598337e-13,
        0.0,
        3.2760890023646024e-13,
        1.1028244317000886e-15,
        -18.010489758645804,
        0.0,
        -9.743646625160102e-20,
        44.934638886669745,
        2.7514530841701144e-15,
        0.0,
        0.0,
        -1.99999998897313,
        0.0,
        1.0
      ],
      "name": "Object_12"
    },
    {
      "mesh": 0,
      "name": "Object_13",
      "skin": 0
    },
    {
      "mesh": 1,
      "name": "Object_14",
      "skin": 0
    },
    {
      "name": "Circle",
      "rotation": [
        -0.7071068286895752,
        0.0,
        0.0,
        0.7071067094802856
      ],
      "scale": [
        18.01049041748047,
        18.01049041748047,
        44.93463897705078
      ],
      "translation": [
        0.0,
        -2.0,
        0.0
      ]
    }
  ],
  "scene": 0,
  "scenes": [
    {
      "name": "Sketchfab_Scene",
      "nodes": [
        0
      ]
    }
  ],
  "skins": [
    {
      "inverseBindMatrices": 6,
      "joints": [
        6,
        7,
        8,
        9,
        10,
        11
      ],
      "skeleton": 6
    }
  ]
}
